<?xml version="1.0" encoding="UTF-8" standalone="no"?>
<!-- Created with Inkscape (http://www.inkscape.org/) -->

<svg
   xmlns:dc="http://purl.org/dc/elements/1.1/"
   xmlns:cc="http://creativecommons.org/ns#"
   xmlns:rdf="http://www.w3.org/1999/02/22-rdf-syntax-ns#"
   xmlns:svg="http://www.w3.org/2000/svg"
   xmlns="http://www.w3.org/2000/svg"
   xmlns:sodipodi="http://sodipodi.sourceforge.net/DTD/sodipodi-0.dtd"
   xmlns:inkscape="http://www.inkscape.org/namespaces/inkscape"
   width="400"
   height="200"
   id="svg2"
   version="1.1"
   inkscape:version="0.48.4 r9939"
   sodipodi:docname="appearance_hover.svg">
  <defs
     id="defs4" />
  <sodipodi:namedview
     id="base"
     pagecolor="#ffffff"
     bordercolor="#666666"
     borderopacity="1.0"
     inkscape:pageopacity="0.0"
     inkscape:pageshadow="2"
     inkscape:zoom="2.8"
     inkscape:cx="152.26807"
     inkscape:cy="80.370501"
     inkscape:document-units="px"
     inkscape:current-layer="layer1-9"
     showgrid="false"
     showguides="true"
     inkscape:guide-bbox="true"
     inkscape:window-width="1366"
     inkscape:window-height="744"
     inkscape:window-x="0"
     inkscape:window-y="24"
     inkscape:window-maximized="1" />
  <metadata
     id="metadata7">
    <rdf:RDF>
      <cc:Work
         rdf:about="">
        <dc:format>image/svg+xml</dc:format>
        <dc:type
           rdf:resource="http://purl.org/dc/dcmitype/StillImage" />
        <dc:title></dc:title>
      </cc:Work>
    </rdf:RDF>
  </metadata>
  <g
     inkscape:label="Layer 1"
     inkscape:groupmode="layer"
     id="layer1"
     transform="translate(0,-852.36218)">
    <g
       id="layer1-6"
       inkscape:label="Layer 1"
       transform="translate(-135.36043,5.3033032)"
       style="fill:#b3b3b3">
      <path
         transform="translate(51.517781,810.44085)"
         d="m 418.20314,133.83501 c 0,13.66835 -11.08038,24.74873 -24.74873,24.74873 -13.66835,0 -24.74874,-11.08038 -24.74874,-24.74873 0,-13.66835 11.08039,-24.74874 24.74874,-24.74874 13.66835,0 24.74873,11.08039 24.74873,24.74874 z"
         sodipodi:ry="24.748737"
         sodipodi:rx="24.748737"
         sodipodi:cy="133.83501"
         sodipodi:cx="393.45441"
         id="path2985"
         style="fill:#b3b3b3"
         sodipodi:type="arc" />
      <path
         sodipodi:type="arc"
         style="fill:#b3b3b3"
         id="path2987"
         sodipodi:cx="393.45441"
         sodipodi:cy="133.83501"
         sodipodi:rx="24.748737"
         sodipodi:ry="24.748737"
         d="m 418.20314,133.83501 c 0,13.66835 -11.08038,24.74873 -24.74873,24.74873 -13.66835,0 -24.74874,-11.08038 -24.74874,-24.74873 0,-13.66835 11.08039,-24.74874 24.74874,-24.74874 13.66835,0 24.74873,11.08039 24.74873,24.74874 z"
         transform="matrix(0.80612245,0,0,0.80612245,87.141118,864.42019)" />
      <path
         transform="matrix(0.59183674,0,0,0.59183674,147.96673,926.18162)"
         d="m 418.20314,133.83501 c 0,13.66835 -11.08038,24.74873 -24.74873,24.74873 -13.66835,0 -24.74874,-11.08038 -24.74874,-24.74873 0,-13.66835 11.08039,-24.74874 24.74874,-24.74874 13.66835,0 24.74873,11.08039 24.74873,24.74874 z"
         sodipodi:ry="24.748737"
         sodipodi:rx="24.748737"
         sodipodi:cy="133.83501"
         sodipodi:cx="393.45441"
         id="path2989"
         style="fill:#b3b3b3"
         sodipodi:type="arc" />
      <path
         sodipodi:type="arc"
         style="fill:#b3b3b3"
         id="path2991"
         sodipodi:cx="393.45441"
         sodipodi:cy="133.83501"
         sodipodi:rx="24.748737"
         sodipodi:ry="24.748737"
         d="m 418.20314,133.83501 c 0,13.66835 -11.08038,24.74873 -24.74873,24.74873 -13.66835,0 -24.74874,-11.08038 -24.74874,-24.74873 0,-13.66835 11.08039,-24.74874 24.74874,-24.74874 13.66835,0 24.74873,11.08039 24.74873,24.74874 z"
         transform="matrix(0.45918368,0,0,0.45918368,193.34114,973.98728)" />
      <path
         sodipodi:type="arc"
         style="fill:#b3b3b3"
         id="path2993"
         sodipodi:cx="393.45441"
         sodipodi:cy="133.83501"
         sodipodi:rx="24.748737"
         sodipodi:ry="24.748737"
         d="m 418.20314,133.83501 c 0,13.66835 -11.08038,24.74873 -24.74873,24.74873 -13.66835,0 -24.74874,-11.08038 -24.74874,-24.74873 0,-13.66835 11.08039,-24.74874 24.74874,-24.74874 13.66835,0 24.74873,11.08039 24.74873,24.74874 z"
         transform="matrix(1.255102,0,0,1.255102,9.483068,762.91474)" />
    </g>
    <rect
       style="fill:#b3b3b3"
       id="rect3015"
       width="9.8557167"
       height="91.600182"
       x="-1173.5323"
       y="688.69775"
       transform="matrix(-0.85353971,-0.52102779,-0.85353971,0.52102779,0,0)"
       ry="4.9278584"
       rx="4.9278584" />
    <path
       style="fill:#b3b3b3"
       d="m 279.16067,1036.5408 c 17.53728,2.2248 35.47434,-5.4433 49.4242,-19.645 l -0.23568,0.2388 c -30.55916,-2.0896 -34.96289,10.4328 -62.60218,16.096 z"
       id="rect3025"
       inkscape:connector-curvature="0"
       sodipodi:nodetypes="ccccc" />
    <g
       transform="matrix(3.7795276,0,0,3.7795276,-162.99244,-144.36277)"
       id="layer1-9"
       inkscape:label="Layer 1" />
  </g>
</svg>
