<svg id="Layer_1" data-name="Layer 1" xmlns="http://www.w3.org/2000/svg" viewBox="0 0 400 200"><defs><style>.cls-1{fill:#abebc6;}.cls-2{fill:gray;}</style></defs><title>Artboard 1</title><path class="cls-1" d="M428.41,124.55H337.77a49.66,49.66,0,0,1-94.57,0H232.55A16.6,16.6,0,0,0,216,141.1v70.35A16.6,16.6,0,0,0,232.55,228H428.41A16.6,16.6,0,0,0,445,211.45V141.1A16.6,16.6,0,0,0,428.41,124.55Z"/><circle class="cls-1" cx="291.17" cy="107.31" r="39.31"/><rect class="cls-2" x="240" y="34" width="11" height="117" rx="5.5" ry="5.5" transform="translate(6.5 200.69) rotate(-45)"/><rect class="cls-2" x="187" y="87" width="117" height="11" rx="5.5" ry="5.5" transform="translate(6.5 200.69) rotate(-45)"/></svg>