<svg id="Layer_1" data-name="Layer 1" xmlns="http://www.w3.org/2000/svg" viewBox="0 0 400 200"><defs><style>.cls-1{fill:#4d4d4d;}.cls-2{fill:#3fa9f5;}</style></defs><title>Artboard 1</title><path class="cls-1" d="M231.87,87.26l-.05.12-.11,0-.11,0,0-.12L189.37,69.17a4.89,4.89,0,0,0-.37,1.88v38.71a5.06,5.06,0,0,0,5.05,5H269a5.06,5.06,0,0,0,5.05-5V71.05a5,5,0,0,0-.31-1.73Z"/><path class="cls-1" d="M270.31,66.19A5.08,5.08,0,0,0,269,66h-74.9a5.62,5.62,0,0,0-1.1.12l38.76,16.63Z"/><path class="cls-2" d="M441.41,132.55H350.77a49.66,49.66,0,0,1-94.57,0H245.55A16.6,16.6,0,0,0,229,149.1v70.35A16.6,16.6,0,0,0,245.55,236H441.41A16.6,16.6,0,0,0,458,219.45V149.1A16.6,16.6,0,0,0,441.41,132.55Z"/><circle class="cls-2" cx="304.17" cy="115.31" r="39.31"/></svg>