<svg id="Layer_1" data-name="Layer 1" xmlns="http://www.w3.org/2000/svg" viewBox="0 0 400 200"><defs><style>.cls-1{font-size:48px;font-family:BookshelfSymbolSeven, Bookshelf Symbol 7;}.cls-1,.cls-5,.cls-8{fill:#999;}.cls-2{font-family:HarlowSolid, Harlow Solid Italic;font-style:italic;}.cls-3{font-family:AdobeArabic-Regular, Adobe Arabic;}.cls-4{font-family:AdobeMingStd-Light-B5pc-H, Adobe Ming Std;}.cls-5{font-size:24px;font-family:NirmalaUI, Nirmala UI;}.cls-6{font-family:MyriadPro-Regular, Myriad Pro;}.cls-7{fill:none;stroke:#999;stroke-miterlimit:10;stroke-width:5px;}</style></defs><title>Artboard 1</title><text class="cls-1" transform="translate(207.31 129.02)">Lm<tspan class="cls-2" x="70.88" y="0">G</tspan><tspan class="cls-3" x="107.02" y="0">ءؤءؤ</tspan><tspan class="cls-4" x="167.81" y="0">屘</tspan></text><text class="cls-5" transform="translate(342.89 180.16)">્ોુુ્ે<tspan class="cls-6" x="7.96" y="0">вфик</tspan></text><circle class="cls-7" cx="270" cy="171" r="18.5"/><rect class="cls-8" x="267" y="156" width="5" height="17"/><rect class="cls-8" x="273.12" y="165.38" width="3.14" height="17" transform="translate(530.97 -26.14) rotate(109.7)"/><path class="cls-8" d="M327,170.84l-.16-3.52s-2.72-1.91-3.84-1.59c0,0,2.24-6.87,4.15-7.83s2.88-4,.16-5.11-5,0-9.42,13.58l-4.15.16s-.48-2.56-3.35-6.87-9.27-9.43-9.43-5.43,8.31,5.43,8.47,12.3h-3a2.63,2.63,0,0,0-.48,4.31c2.4,2.55,3.68,2.23,3.68,2.23s.48,6.55-6.23,12.14c0,0-2.56,3.36,2.87,3.52s9.59-9.11,7.83-17.25l3.51.16s-.48,14.21,7,16.77,1.28-3.84.32-6.07-4-8-2.56-11.18C322.4,171.16,325.76,172.75,327,170.84Z"/></svg>