<?xml version="1.0" encoding="UTF-8" standalone="no"?>
<!-- Created with Inkscape (http://www.inkscape.org/) -->

<svg
   xmlns:dc="http://purl.org/dc/elements/1.1/"
   xmlns:cc="http://creativecommons.org/ns#"
   xmlns:rdf="http://www.w3.org/1999/02/22-rdf-syntax-ns#"
   xmlns:svg="http://www.w3.org/2000/svg"
   xmlns="http://www.w3.org/2000/svg"
   xmlns:sodipodi="http://sodipodi.sourceforge.net/DTD/sodipodi-0.dtd"
   xmlns:inkscape="http://www.inkscape.org/namespaces/inkscape"
   width="300"
   height="150"
   viewBox="0 0 79.374998 39.687501"
   version="1.1"
   id="svg2088"
   inkscape:version="0.92.3 (3ce5693, 2018-03-11)"
   sodipodi:docname="tagCard_visibility.svg">
  <defs
     id="defs2082" />
  <sodipodi:namedview
     id="base"
     pagecolor="#ffffff"
     bordercolor="#666666"
     borderopacity="1.0"
     inkscape:pageopacity="0.0"
     inkscape:pageshadow="2"
     inkscape:zoom="1.979899"
     inkscape:cx="103.54286"
     inkscape:cy="99.810761"
     inkscape:document-units="mm"
     inkscape:current-layer="layer1"
     showgrid="false"
     units="px"
     inkscape:window-width="1366"
     inkscape:window-height="744"
     inkscape:window-x="0"
     inkscape:window-y="24"
     inkscape:window-maximized="1" />
  <metadata
     id="metadata2085">
    <rdf:RDF>
      <cc:Work
         rdf:about="">
        <dc:format>image/svg+xml</dc:format>
        <dc:type
           rdf:resource="http://purl.org/dc/dcmitype/StillImage" />
        <dc:title></dc:title>
      </cc:Work>
    </rdf:RDF>
  </metadata>
  <g
     inkscape:label="Layer 1"
     inkscape:groupmode="layer"
     id="layer1"
     transform="translate(0,-257.31248)">
    <path
       style="opacity:1;fill:#b3b3b3;fill-opacity:1;stroke:none;stroke-width:1.32291663;stroke-miterlimit:4;stroke-dasharray:none;stroke-opacity:1"
       d="m 60.66995,285.7748 c -1.110504,0 -2.004529,0.89403 -2.004529,2.00453 v 9.22063 c 0,1.1105 0.894025,2.00453 2.004529,2.00453 h 20.981148 c 1.110504,0 2.00401,-0.89403 2.00401,-2.00453 v -9.22063 c 0,-1.1105 -0.893506,-2.00453 -2.00401,-2.00453 z m -0.534334,2.2717 h 14.165543 v 2.00453 H 60.135616 Z m 6.013585,6.94893 H 82.05159 v 2.67271 H 66.149201 Z"
       id="rect2633"
       inkscape:connector-curvature="0" />
    <path
       style="opacity:1;fill:#b3b3b3;fill-opacity:1;stroke:none;stroke-width:0.38790637;stroke-miterlimit:4;stroke-dasharray:none;stroke-opacity:1"
       d="m 62.00645,282.16655 a 5.5458878,1.8708664 0 0 0 -5.545827,1.87092 5.5458878,1.8708664 0 0 0 5.545827,1.87079 5.5458878,1.8708664 0 0 0 5.545989,-1.87079 5.5458878,1.8708664 0 0 0 -5.545989,-1.87092 z m -0.0628,0.42854 a 1.3267641,1.1672667 0 0 1 1.326894,1.16719 1.3267641,1.1672667 0 0 1 -1.326894,1.16732 1.3267641,1.1672667 0 0 1 -1.326732,-1.16732 1.3267641,1.1672667 0 0 1 1.326732,-1.16719 z"
       id="path815"
       inkscape:connector-curvature="0" />
    <ellipse
       style="opacity:1;fill:#b3b3b3;fill-opacity:1;stroke:none;stroke-width:0.38790637;stroke-miterlimit:4;stroke-dasharray:none;stroke-opacity:1"
       id="path823"
       cx="61.964642"
       cy="283.39548"
       rx="1.0673218"
       ry="0.97211683" />
  </g>
</svg>
