<?xml version="1.0" encoding="UTF-8" standalone="no"?>
<!-- Created with Inkscape (http://www.inkscape.org/) -->

<svg
   xmlns:dc="http://purl.org/dc/elements/1.1/"
   xmlns:cc="http://creativecommons.org/ns#"
   xmlns:rdf="http://www.w3.org/1999/02/22-rdf-syntax-ns#"
   xmlns:svg="http://www.w3.org/2000/svg"
   xmlns="http://www.w3.org/2000/svg"
   xmlns:sodipodi="http://sodipodi.sourceforge.net/DTD/sodipodi-0.dtd"
   xmlns:inkscape="http://www.inkscape.org/namespaces/inkscape"
   width="500"
   height="200"
   id="svg2"
   version="1.1"
   inkscape:version="0.48.4 r9939"
   sodipodi:docname="background_hover.svg">
  <defs
     id="defs4" />
  <sodipodi:namedview
     id="base"
     pagecolor="#ffffff"
     bordercolor="#666666"
     borderopacity="1.0"
     inkscape:pageopacity="0.0"
     inkscape:pageshadow="2"
     inkscape:zoom="1.979899"
     inkscape:cx="239.96378"
     inkscape:cy="92.91257"
     inkscape:document-units="px"
     inkscape:current-layer="layer1"
     showgrid="false"
     inkscape:window-width="1366"
     inkscape:window-height="744"
     inkscape:window-x="0"
     inkscape:window-y="24"
     inkscape:window-maximized="1" />
  <metadata
     id="metadata7">
    <rdf:RDF>
      <cc:Work
         rdf:about="">
        <dc:format>image/svg+xml</dc:format>
        <dc:type
           rdf:resource="http://purl.org/dc/dcmitype/StillImage" />
        <dc:title></dc:title>
      </cc:Work>
    </rdf:RDF>
  </metadata>
  <g
     inkscape:label="Layer 1"
     inkscape:groupmode="layer"
     id="layer1"
     transform="translate(0,-852.36218)">
    <path
       sodipodi:type="arc"
       style="fill:#ddff55"
       id="path2985"
       sodipodi:cx="393.45441"
       sodipodi:cy="133.83501"
       sodipodi:rx="24.748737"
       sodipodi:ry="24.748737"
       d="m 418.20314,133.83501 a 24.748737,24.748737 0 1 1 -49.49747,0 24.748737,24.748737 0 1 1 49.49747,0 z"
       transform="translate(51.517781,810.44085)" />
    <path
       transform="matrix(0.80612245,0,0,0.80612245,87.141118,864.42019)"
       d="m 418.20314,133.83501 a 24.748737,24.748737 0 1 1 -49.49747,0 24.748737,24.748737 0 1 1 49.49747,0 z"
       sodipodi:ry="24.748737"
       sodipodi:rx="24.748737"
       sodipodi:cy="133.83501"
       sodipodi:cx="393.45441"
       id="path2987"
       style="fill:#ffe680"
       sodipodi:type="arc" />
    <path
       sodipodi:type="arc"
       style="fill:#ffb380"
       id="path2989"
       sodipodi:cx="393.45441"
       sodipodi:cy="133.83501"
       sodipodi:rx="24.748737"
       sodipodi:ry="24.748737"
       d="m 418.20314,133.83501 a 24.748737,24.748737 0 1 1 -49.49747,0 24.748737,24.748737 0 1 1 49.49747,0 z"
       transform="matrix(0.59183674,0,0,0.59183674,147.96673,926.18162)" />
    <path
       transform="matrix(0.45918368,0,0,0.45918368,193.34114,973.98728)"
       d="m 418.20314,133.83501 a 24.748737,24.748737 0 1 1 -49.49747,0 24.748737,24.748737 0 1 1 49.49747,0 z"
       sodipodi:ry="24.748737"
       sodipodi:rx="24.748737"
       sodipodi:cy="133.83501"
       sodipodi:cx="393.45441"
       id="path2991"
       style="fill:#ffaaaa"
       sodipodi:type="arc" />
    <path
       transform="matrix(1.255102,0,0,1.255102,9.483068,762.91474)"
       d="m 418.20314,133.83501 a 24.748737,24.748737 0 1 1 -49.49747,0 24.748737,24.748737 0 1 1 49.49747,0 z"
       sodipodi:ry="24.748737"
       sodipodi:rx="24.748737"
       sodipodi:cy="133.83501"
       sodipodi:cx="393.45441"
       id="path2993"
       style="fill:#b3ff80"
       sodipodi:type="arc" />
  </g>
</svg>
